<svg xmlns="http://www.w3.org/2000/svg" viewBox="0 0 800 1000" width="800" height="1000" preserveAspectRatio="xMidYMid slice">
  <defs>
    <linearGradient id="bg-e" x1="0" y1="0" x2="0" y2="1">
      <stop offset="0%" stop-color="#f5f1ea"/>
      <stop offset="100%" stop-color="#ebe5d9"/>
    </linearGradient>
    <radialGradient id="spot-e" cx="50%" cy="40%" r="55%">
      <stop offset="0%" stop-color="#fff" stop-opacity="1"/>
      <stop offset="100%" stop-color="#fff" stop-opacity="0"/>
    </radialGradient>
    <radialGradient id="caseGrad-e" cx="50%" cy="40%" r="55%">
      <stop offset="0%" stop-color="#f5dcb6"/>
      <stop offset="55%" stop-color="#d6a878"/>
      <stop offset="100%" stop-color="#8a6442"/>
    </radialGradient>
    <filter id="grain-e">
      <feTurbulence type="fractalNoise" baseFrequency="0.7" numOctaves="2" stitchTiles="stitch"/>
      <feColorMatrix values="0 0 0 0 0  0 0 0 0 0  0 0 0 0 0  0 0 0 0.07 0"/>
    </filter>
  </defs>

  <rect width="800" height="1000" fill="url(#bg-e)"/>
  <rect width="800" height="1000" fill="url(#spot-e)" opacity="0.7"/>

  <!-- shadow -->
  <ellipse cx="400" cy="700" rx="220" ry="20" fill="#1a1006" opacity="0.18"/>

  <!-- Profile view of watch on side -->
  <g transform="translate(400, 500)">
    <!-- side profile of watch case -->
    <g>
      <!-- side cushion of case -->
      <ellipse cx="0" cy="0" rx="180" ry="28" fill="url(#caseGrad-e)"/>
      <ellipse cx="0" cy="-2" rx="178" ry="25" fill="#f5dcb6"/>
      <ellipse cx="0" cy="0" rx="180" ry="28" fill="none" stroke="#8a6442" stroke-width="1" opacity="0.6"/>
      
      <!-- case detail lines -->
      <line x1="-180" y1="-12" x2="180" y2="-12" stroke="#8a6442" stroke-width="0.5" opacity="0.5"/>
      <line x1="-180" y1="12" x2="180" y2="12" stroke="#8a6442" stroke-width="0.5" opacity="0.5"/>
      
      <!-- crown profile -->
      <ellipse cx="187" cy="0" rx="12" ry="10" fill="url(#caseGrad-e)"/>
      <line x1="180" y1="-5" x2="195" y2="-5" stroke="#8a6442" stroke-width="0.4"/>
      <line x1="180" y1="0" x2="195" y2="0" stroke="#8a6442" stroke-width="0.4"/>
      <line x1="180" y1="5" x2="195" y2="5" stroke="#8a6442" stroke-width="0.4"/>
      
      <!-- top sapphire crystal -->
      <path d="M -160 -12 Q 0 -28 160 -12 L 160 -10 Q 0 -25 -160 -10 Z" fill="#fff3d8" opacity="0.3"/>
      
      <!-- strap going off -->
      <path d="M -45 8 L -45 70 Q -50 100 -55 130 L -55 150 L -200 150 L -200 100 Q -180 60 -180 28" fill="#5d3027"/>
      <path d="M 45 8 L 45 70 Q 50 100 55 130 L 55 150 L 200 150 L 200 100 Q 180 60 180 28" fill="#5d3027"/>
      <line x1="-50" y1="40" x2="-200" y2="105" stroke="#c9a96a" stroke-width="0.6" stroke-dasharray="2 3" opacity="0.5"/>
      <line x1="50" y1="40" x2="200" y2="105" stroke="#c9a96a" stroke-width="0.6" stroke-dasharray="2 3" opacity="0.5"/>
    </g>
  </g>

  <!-- top reflection / window light -->
  <ellipse cx="350" cy="350" rx="200" ry="80" fill="#fff" opacity="0.4"/>

  <!-- Editorial frame element -->
  <g stroke="#0a1933" stroke-width="0.6" fill="none" opacity="0.4">
    <line x1="60" y1="60" x2="160" y2="60"/>
    <line x1="60" y1="60" x2="60" y2="160"/>
    <line x1="740" y1="60" x2="640" y2="60"/>
    <line x1="740" y1="60" x2="740" y2="160"/>
    <line x1="60" y1="940" x2="160" y2="940"/>
    <line x1="60" y1="940" x2="60" y2="840"/>
    <line x1="740" y1="940" x2="640" y2="940"/>
    <line x1="740" y1="940" x2="740" y2="840"/>
  </g>

  <!-- subtle text -->
  <text x="400" y="900" font-family="Cormorant Garamond, serif" font-style="italic" font-size="20" fill="#0a1933" text-anchor="middle" opacity="0.5">— une heure suspendue —</text>

  <!-- grain -->
  <rect width="800" height="1000" filter="url(#grain-e)" opacity="0.4"/>
</svg>
