<svg xmlns="http://www.w3.org/2000/svg" viewBox="0 0 800 1000" width="800" height="1000" preserveAspectRatio="xMidYMid slice">
  <defs>
    <linearGradient id="bg-h" x1="0" y1="0" x2="0" y2="1">
      <stop offset="0%" stop-color="#0a1933"/>
      <stop offset="60%" stop-color="#122548"/>
      <stop offset="100%" stop-color="#1a3160"/>
    </linearGradient>
    <radialGradient id="lamp-h" cx="50%" cy="35%" r="35%">
      <stop offset="0%" stop-color="#fff3d8" stop-opacity="0.4"/>
      <stop offset="40%" stop-color="#c9a96a" stop-opacity="0.15"/>
      <stop offset="100%" stop-color="#c9a96a" stop-opacity="0"/>
    </radialGradient>
    <linearGradient id="bench-h" x1="0" y1="0" x2="0" y2="1">
      <stop offset="0%" stop-color="#3d2a18"/>
      <stop offset="100%" stop-color="#1a1006"/>
    </linearGradient>
    <filter id="grain-h">
      <feTurbulence type="fractalNoise" baseFrequency="0.65" numOctaves="2" stitchTiles="stitch"/>
      <feColorMatrix values="0 0 0 0 1  0 0 0 0 1  0 0 0 0 1  0 0 0 0.08 0"/>
    </filter>
  </defs>

  <!-- background -->
  <rect width="800" height="1000" fill="url(#bg-h)"/>

  <!-- soft lamp light -->
  <circle cx="400" cy="400" r="350" fill="url(#lamp-h)"/>

  <!-- bench surface -->
  <rect x="0" y="700" width="800" height="300" fill="url(#bench-h)"/>
  <line x1="0" y1="700" x2="800" y2="700" stroke="#5d4530" stroke-width="1" opacity="0.5"/>
  <!-- subtle bench grain -->
  <g stroke="#1a1006" stroke-width="0.4" opacity="0.6">
    <line x1="0" y1="730" x2="800" y2="735"/>
    <line x1="0" y1="780" x2="800" y2="785"/>
    <line x1="0" y1="830" x2="800" y2="828"/>
    <line x1="0" y1="900" x2="800" y2="905"/>
    <line x1="0" y1="950" x2="800" y2="945"/>
  </g>

  <!-- Open watch (back removed showing movement) - centerpiece -->
  <g transform="translate(400, 600)">
    <!-- shadow under -->
    <ellipse cx="0" cy="115" rx="155" ry="20" fill="#000" opacity="0.45"/>
    
    <!-- case body -->
    <circle cx="0" cy="0" r="135" fill="#d6a878"/>
    <circle cx="0" cy="0" r="135" fill="none" stroke="#fff3d8" stroke-width="1" opacity="0.4"/>
    <circle cx="0" cy="0" r="120" fill="#22344f"/>
    
    <!-- movement plate -->
    <circle cx="0" cy="0" r="115" fill="#c9a96a"/>
    <circle cx="0" cy="0" r="115" fill="#3d2a18" opacity="0.15"/>
    
    <!-- Côtes de Genève stripes -->
    <g opacity="0.5">
      <path d="M-115 -20 Q0 -30 115 -20" stroke="#8a6442" stroke-width="0.6" fill="none"/>
      <path d="M-115 0 Q0 -10 115 0" stroke="#8a6442" stroke-width="0.6" fill="none"/>
      <path d="M-115 20 Q0 10 115 20" stroke="#8a6442" stroke-width="0.6" fill="none"/>
      <path d="M-115 40 Q0 30 115 40" stroke="#8a6442" stroke-width="0.6" fill="none"/>
      <path d="M-115 60 Q0 50 115 60" stroke="#8a6442" stroke-width="0.6" fill="none"/>
      <path d="M-115 -40 Q0 -50 115 -40" stroke="#8a6442" stroke-width="0.6" fill="none"/>
      <path d="M-115 -60 Q0 -70 115 -60" stroke="#8a6442" stroke-width="0.6" fill="none"/>
      <path d="M-115 -80 Q0 -90 115 -80" stroke="#8a6442" stroke-width="0.6" fill="none"/>
      <path d="M-115 80 Q0 70 115 80" stroke="#8a6442" stroke-width="0.6" fill="none"/>
    </g>
    
    <!-- Balance wheel -->
    <circle cx="40" cy="-35" r="40" fill="#1a1006" opacity="0.5"/>
    <circle cx="40" cy="-35" r="38" fill="none" stroke="#fff3d8" stroke-width="1.5" opacity="0.85"/>
    <g stroke="#fff3d8" stroke-width="0.8" opacity="0.85" fill="none">
      <circle cx="40" cy="-35" r="32"/>
      <line x1="0" y1="-35" x2="80" y2="-35"/>
      <line x1="40" y1="-75" x2="40" y2="5"/>
      <line x1="13" y1="-62" x2="67" y2="-8"/>
      <line x1="67" y1="-62" x2="13" y2="-8"/>
    </g>
    <circle cx="40" cy="-35" r="6" fill="#c9a96a"/>
    <circle cx="40" cy="-35" r="2.5" fill="#3d2a18"/>
    <!-- pallet jewel -->
    <circle cx="22" cy="-15" r="3" fill="#c0392b"/>
    
    <!-- Bridge -->
    <path d="M-80 -10 L-30 -10 L-30 60 L-95 60 Z" fill="#d6a878" stroke="#8a6442" stroke-width="0.6"/>
    <circle cx="-60" cy="20" r="4" fill="#3d2a18"/>
    <circle cx="-80" cy="50" r="4" fill="#c0392b"/>
    <circle cx="-40" cy="50" r="4" fill="#c0392b"/>
    
    <!-- Mainspring barrel -->
    <circle cx="-40" cy="-50" r="22" fill="#d6a878" stroke="#8a6442" stroke-width="0.6"/>
    <g stroke="#8a6442" stroke-width="0.4" fill="none">
      <circle cx="-40" cy="-50" r="18"/>
      <circle cx="-40" cy="-50" r="14"/>
      <circle cx="-40" cy="-50" r="10"/>
      <circle cx="-40" cy="-50" r="6"/>
    </g>
    <circle cx="-40" cy="-50" r="2" fill="#3d2a18"/>
    
    <!-- Wheels -->
    <g stroke="#8a6442" stroke-width="0.4" fill="#d6a878">
      <circle cx="-15" cy="40" r="14"/>
      <circle cx="-15" cy="40" r="3" fill="#3d2a18"/>
    </g>
    <g stroke="#8a6442" stroke-width="0.4" fill="#d6a878">
      <circle cx="80" cy="50" r="13"/>
      <circle cx="80" cy="50" r="3" fill="#3d2a18"/>
    </g>
    <g stroke="#8a6442" stroke-width="0.4" fill="#d6a878">
      <circle cx="80" cy="20" r="10"/>
      <circle cx="80" cy="20" r="2" fill="#3d2a18"/>
    </g>
    
    <!-- Engraved text -->
    <text x="0" y="105" font-family="Cormorant Garamond, serif" font-style="italic" font-size="9" fill="#8a6442" text-anchor="middle" opacity="0.8">Manufactum · Zeigerwerke · Genf</text>
    
    <!-- Rubies/jewels scattered -->
    <circle cx="0" cy="0" r="3" fill="#c0392b"/>
    <circle cx="60" cy="-70" r="3" fill="#c0392b"/>
    <circle cx="-70" cy="-15" r="3" fill="#c0392b"/>
    <circle cx="20" cy="80" r="3" fill="#c0392b"/>
  </g>

  <!-- Tools on bench -->
  <!-- Tweezers -->
  <g transform="translate(150, 800) rotate(-25)">
    <line x1="0" y1="0" x2="0" y2="120" stroke="#a0a0a0" stroke-width="3"/>
    <line x1="-3" y1="0" x2="-3" y2="120" stroke="#7a7a7a" stroke-width="2.5"/>
    <line x1="3" y1="0" x2="3" y2="120" stroke="#7a7a7a" stroke-width="2.5"/>
    <line x1="-3" y1="120" x2="3" y2="125" stroke="#a0a0a0" stroke-width="3"/>
  </g>
  <!-- Loupe -->
  <g transform="translate(640, 770)">
    <ellipse cx="0" cy="60" rx="55" ry="6" fill="#000" opacity="0.4"/>
    <rect x="-25" y="-20" width="50" height="80" fill="#1a1a1a" rx="3"/>
    <circle cx="0" cy="-10" r="22" fill="#0a1933" stroke="#c9a96a" stroke-width="1"/>
    <circle cx="0" cy="-10" r="22" fill="#fff3d8" opacity="0.15"/>
    <ellipse cx="-7" cy="-15" rx="8" ry="3" fill="#fff" opacity="0.4"/>
  </g>
  <!-- Screwdriver -->
  <g transform="translate(550, 850) rotate(15)">
    <rect x="-5" y="0" width="10" height="60" fill="#3d2a18"/>
    <rect x="-3" y="60" width="6" height="50" fill="#a0a0a0"/>
    <rect x="-1" y="105" width="2" height="6" fill="#fff" opacity="0.6"/>
  </g>

  <!-- Subtle text/markings -->
  <text x="100" y="980" font-family="Inter Tight, sans-serif" font-size="9" fill="#fff" opacity="0.25" letter-spacing="3">ATELIER · GENÈVE · 1894</text>

  <!-- Grain overlay -->
  <rect width="800" height="1000" filter="url(#grain-h)" opacity="0.5"/>
</svg>
