<svg xmlns="http://www.w3.org/2000/svg" viewBox="0 0 1000 800" width="1000" height="800" preserveAspectRatio="xMidYMid slice">
  <defs>
    <linearGradient id="bg-a" x1="0" y1="0" x2="0" y2="1">
      <stop offset="0%" stop-color="#0a1933"/>
      <stop offset="60%" stop-color="#122548"/>
      <stop offset="100%" stop-color="#1a3160"/>
    </linearGradient>
    <linearGradient id="floor-a" x1="0" y1="0" x2="0" y2="1">
      <stop offset="0%" stop-color="#1a3160"/>
      <stop offset="100%" stop-color="#0a1933"/>
    </linearGradient>
    <linearGradient id="wood-a" x1="0" y1="0" x2="0" y2="1">
      <stop offset="0%" stop-color="#3d2a18"/>
      <stop offset="100%" stop-color="#1a1006"/>
    </linearGradient>
    <radialGradient id="lamp-a" cx="50%" cy="0%" r="50%">
      <stop offset="0%" stop-color="#fff3d8" stop-opacity="0.5"/>
      <stop offset="60%" stop-color="#c9a96a" stop-opacity="0.1"/>
      <stop offset="100%" stop-color="#c9a96a" stop-opacity="0"/>
    </radialGradient>
    <filter id="grain-a">
      <feTurbulence type="fractalNoise" baseFrequency="0.65" numOctaves="2" stitchTiles="stitch"/>
      <feColorMatrix values="0 0 0 0 1  0 0 0 0 1  0 0 0 0 1  0 0 0 0.06 0"/>
    </filter>
  </defs>

  <!-- background wall -->
  <rect width="1000" height="800" fill="url(#bg-a)"/>
  
  <!-- arches (boutique architecture) -->
  <g fill="none" stroke="#1a3160" stroke-width="1" opacity="0.6">
    <path d="M 100 600 L 100 300 Q 100 200 200 200 Q 300 200 300 300 L 300 600"/>
    <path d="M 350 600 L 350 250 Q 350 150 500 150 Q 650 150 650 250 L 650 600"/>
    <path d="M 700 600 L 700 300 Q 700 200 800 200 Q 900 200 900 300 L 900 600"/>
  </g>
  
  <!-- arch interiors with very faint light -->
  <g opacity="0.15">
    <path d="M 100 600 L 100 300 Q 100 200 200 200 Q 300 200 300 300 L 300 600 Z" fill="#c9a96a"/>
    <path d="M 350 600 L 350 250 Q 350 150 500 150 Q 650 150 650 250 L 650 600 Z" fill="#fff3d8"/>
    <path d="M 700 600 L 700 300 Q 700 200 800 200 Q 900 200 900 300 L 900 600 Z" fill="#c9a96a"/>
  </g>

  <!-- Centre arch — lamp/spotlight -->
  <ellipse cx="500" cy="200" rx="220" ry="180" fill="url(#lamp-a)"/>

  <!-- floor -->
  <rect x="0" y="600" width="1000" height="200" fill="url(#floor-a)"/>
  <line x1="0" y1="600" x2="1000" y2="600" stroke="#fff" stroke-width="0.5" opacity="0.2"/>
  
  <!-- floor reflection lines -->
  <g stroke="#fff" stroke-width="0.3" opacity="0.08">
    <line x1="0" y1="640" x2="1000" y2="635"/>
    <line x1="0" y1="690" x2="1000" y2="700"/>
    <line x1="0" y1="750" x2="1000" y2="745"/>
  </g>

  <!-- Vitrine / display case in centre -->
  <g transform="translate(500, 460)">
    <!-- display table -->
    <rect x="-160" y="100" width="320" height="60" fill="url(#wood-a)" stroke="#5d4530" stroke-width="0.5"/>
    <rect x="-170" y="95" width="340" height="10" fill="#5d4530"/>
    
    <!-- glass cover -->
    <rect x="-150" y="-50" width="300" height="145" fill="#fff" opacity="0.06" stroke="#fff3d8" stroke-width="0.6" opacity="0.3"/>
    <rect x="-150" y="-50" width="300" height="145" fill="none" stroke="#c9a96a" stroke-width="0.5" opacity="0.4"/>
    
    <!-- pillows / watch displays -->
    <ellipse cx="-90" cy="80" rx="40" ry="6" fill="#000" opacity="0.4"/>
    <rect x="-115" y="60" width="50" height="25" rx="5" fill="#fbf5ea" opacity="0.85"/>
    <ellipse cx="0" cy="80" rx="40" ry="6" fill="#000" opacity="0.4"/>
    <rect x="-25" y="60" width="50" height="25" rx="5" fill="#fbf5ea" opacity="0.85"/>
    <ellipse cx="90" cy="80" rx="40" ry="6" fill="#000" opacity="0.4"/>
    <rect x="65" y="60" width="50" height="25" rx="5" fill="#fbf5ea" opacity="0.85"/>
    
    <!-- mini watches on pillows -->
    <g transform="translate(-90, 60)">
      <circle r="12" fill="#d6a878"/>
      <circle r="9" fill="#fbf5ea"/>
      <circle r="1.5" fill="#3d2a18"/>
      <line x1="0" y1="0" x2="-5" y2="-5" stroke="#3d2a18" stroke-width="0.7"/>
      <line x1="0" y1="0" x2="3" y2="-7" stroke="#3d2a18" stroke-width="0.7"/>
    </g>
    <g transform="translate(0, 60)">
      <circle r="12" fill="#a3a8b0"/>
      <circle r="9" fill="#22344f"/>
      <circle r="1.5" fill="#c9a96a"/>
      <line x1="0" y1="0" x2="-3" y2="-7" stroke="#fbf5ea" stroke-width="0.7"/>
      <line x1="0" y1="0" x2="6" y2="-3" stroke="#fbf5ea" stroke-width="0.7"/>
    </g>
    <g transform="translate(90, 60)">
      <circle r="12" fill="#d4d4d4"/>
      <circle r="9" fill="#0a0a0a"/>
      <circle r="1.5" fill="#c9a96a"/>
      <line x1="0" y1="0" x2="-6" y2="-3" stroke="#c9a96a" stroke-width="0.7"/>
      <line x1="0" y1="0" x2="2" y2="-8" stroke="#c9a96a" stroke-width="0.7"/>
    </g>
  </g>

  <!-- pendant lamp -->
  <g transform="translate(500, 100)">
    <line x1="0" y1="0" x2="0" y2="50" stroke="#3d2a18" stroke-width="0.8"/>
    <ellipse cx="0" cy="65" rx="35" ry="20" fill="#3d2a18"/>
    <ellipse cx="0" cy="65" rx="35" ry="20" fill="#c9a96a" opacity="0.3"/>
    <circle cx="0" cy="80" r="8" fill="#fff3d8" opacity="0.6"/>
  </g>

  <!-- decorative columns/details on sides -->
  <g opacity="0.6">
    <rect x="40" y="200" width="6" height="400" fill="#1a3160"/>
    <rect x="954" y="200" width="6" height="400" fill="#1a3160"/>
  </g>

  <!-- subtle architectural ornament -->
  <text x="500" y="780" font-family="Cormorant Garamond, serif" font-style="italic" font-size="11" fill="#fff" opacity="0.3" text-anchor="middle" letter-spacing="3">— BOUTIQUE GENF —</text>

  <!-- grain overlay -->
  <rect width="1000" height="800" filter="url(#grain-a)" opacity="0.5"/>
</svg>
